HIERARCHY
ROOT hip
{
	OFFSET 0.000000 0.000000 0.000000
	CHANNELS 6 Xposition Yposition Zposition Xrotation Zrotation Yrotation 
	JOINT abdomen
	{
		OFFSET 0.000000 3.422050 0.000000
		CHANNELS 3 Xrotation Zrotation Yrotation 
		JOINT chest
		{
			OFFSET 0.000000 8.486693 -0.684411
			CHANNELS 3 Xrotation Zrotation Yrotation 
			JOINT neck
			{
				OFFSET 0.000000 10.266162 -0.273764
				CHANNELS 3 Xrotation Zrotation Yrotation 
				JOINT head
				{
					OFFSET 0.000000 3.148285 0.000000
					CHANNELS 3 Xrotation Zrotation Yrotation 
					End Site
					{
						OFFSET 0.000000 3.148289 0.000000
					}
				}
			}
			JOINT lCollar
			{
				OFFSET 3.422053 6.707223 -0.821293
				CHANNELS 3 Yrotation Zrotation Xrotation 
				JOINT lShldr
				{
					OFFSET 3.285171 0.000000 0.000000
					CHANNELS 3 Zrotation Yrotation Xrotation 
					JOINT lForeArm
					{
						OFFSET 10.129278 0.000000 0.000000
						CHANNELS 3 Yrotation Zrotation Xrotation 
						JOINT lHand
						{
							OFFSET 8.486692 0.000000 0.000000
							CHANNELS 3 Zrotation Yrotation Xrotation 
							End Site
							{
								OFFSET 4.106464 0.000000 0.000000
							}
						}
					}
				}
			}
			JOINT rCollar
			{
				OFFSET -3.558935 6.707223 -0.821293
				CHANNELS 3 Yrotation Zrotation Xrotation 
				JOINT rShldr
				{
					OFFSET -3.148289 0.000000 0.000000
					CHANNELS 3 Zrotation Yrotation Xrotation 
					JOINT rForeArm
					{
						OFFSET -10.266159 0.000000 0.000000
						CHANNELS 3 Yrotation Zrotation Xrotation 
						JOINT rHand
						{
							OFFSET -8.349810 0.000000 0.000000
							CHANNELS 3 Zrotation Yrotation Xrotation 
							End Site
							{
								OFFSET -4.106464 0.000000 0.000000
							}
						}
					}
				}
			}
		}
	}
	JOINT lThigh
	{
		OFFSET 5.338403 -1.642589 1.368821
		CHANNELS 3 Xrotation Zrotation Yrotation 
		JOINT lShin
		{
			OFFSET -2.053232 -20.121670 0.000000
			CHANNELS 3 Xrotation Zrotation Yrotation 
			JOINT lFoot
			{
				OFFSET 0.000000 -19.300380 -1.231939
				CHANNELS 3 Xrotation Yrotation Zrotation 
				End Site
				{
					OFFSET 0.000000 -2.463878 4.653993
				}
			}
		}
	}
	JOINT rThigh
	{
		OFFSET -5.338403 -1.642589 1.368821
		CHANNELS 3 Xrotation Zrotation Yrotation 
		JOINT rShin
		{
			OFFSET 2.053232 -20.121670 0.000000
			CHANNELS 3 Xrotation Zrotation Yrotation 
			JOINT rFoot
			{
				OFFSET 0.000000 -19.300380 -1.231939
				CHANNELS 3 Xrotation Yrotation Zrotation 
				End Site
				{
					OFFSET 0.000000 -2.463878 4.653993
				}
			}
		}
	}
}
MOTION
Frames: 13
Frame Time: 0.099977
-7.533175 43.864311 -27.231695 0.000000 0.000000 -66.008514 -4.803606 -0.912914 4.895903 1.121336 5.212019 3.083009 25.480602 -5.016719 14.057988 8.633465 3.062742 13.095737 1.878187 -17.981026 -0.919208 -44.972500 -1.438865 -8.343582 -21.290062 -24.923859 35.190292 1.185122 -3.445094 -6.482223 7.768146 24.459261 12.769782 35.842316 5.280308 49.855606 20.811752 -7.065783 -7.288280 2.832145 -4.451272 -34.107742 15.504163 9.677683 1.514727 -2.429006 -5.469733 0.895225 25.016958 51.516392 -30.170883 3.083136 -13.014001 -13.595176 -1.260738 5.142560 -0.828563 9.325828 9.652301 -8.362471 
-7.650122 43.824665 -27.390694 0.000000 0.000000 -66.008514 -4.802010 -0.908488 4.306352 1.145764 5.540726 2.419982 25.176495 -5.019773 14.070399 8.360248 3.076006 13.114923 1.878187 -17.981026 -0.919208 -44.596706 -1.450330 -8.350337 -21.290062 -24.923859 35.190292 1.185122 -3.445094 -6.482223 7.585492 24.211039 12.850433 35.842316 5.280308 49.855606 20.811752 -7.065783 -7.288280 2.832145 -4.451272 -34.107742 15.579061 9.961346 1.518999 -2.429006 -5.469733 0.895225 25.187862 51.459198 -30.505585 3.145312 -12.740924 -13.599569 -1.260738 5.142560 -0.828563 8.726287 9.648048 -8.554037 
-7.767068 43.785015 -27.549690 0.000000 0.000000 -66.008514 -4.800459 -0.904044 3.716630 1.166389 5.869842 1.756408 24.872297 -5.022759 14.082824 8.086968 3.089364 13.134048 1.878187 -17.981026 -0.919208 -44.220875 -1.461753 -8.357168 -21.290062 -24.923859 35.190292 1.185122 -3.445094 -6.482223 7.403560 23.962563 12.930063 35.842316 5.280308 49.855606 20.811752 -7.065783 -7.288280 2.832145 -4.451272 -34.107742 15.654051 10.245026 1.523652 -2.429006 -5.469733 0.895225 25.358021 51.401386 -30.839609 3.207404 -12.467829 -13.603660 -1.260738 5.142560 -0.828563 8.126522 9.645771 -8.745706 
-7.884015 43.745365 -27.708689 0.000000 0.000000 -66.008514 -4.798953 -0.899584 3.126769 1.183196 6.199299 1.092298 24.568029 -5.025682 14.095273 7.813637 3.102816 13.153114 1.878187 -17.981026 -0.919208 -43.844990 -1.473131 -8.364075 -21.290062 -24.923859 35.190292 1.185122 -3.445094 -6.482223 7.222342 23.713837 13.008684 35.842316 5.280308 49.855606 20.811752 -7.065783 -7.288280 2.832145 -4.451272 -34.107742 15.729140 10.528715 1.528688 -2.429006 -5.469733 0.895225 25.527420 51.342937 -31.172932 3.269415 -12.194712 -13.607438 -1.260738 5.142560 -0.828563 7.526574 9.645473 -8.937445 
-8.000960 43.705719 -27.867687 0.000000 0.000000 -66.008514 -4.797494 -0.895107 2.536798 1.196174 6.529025 0.427664 24.263685 -5.028540 14.107738 7.540252 3.116361 13.172119 1.878187 -17.981026 -0.919208 -43.469086 -1.484465 -8.371058 -21.290060 -24.923859 35.190292 1.185122 -3.445094 -6.482223 7.041832 23.464880 13.086303 35.842316 5.280308 49.855606 20.811752 -7.065783 -7.288280 2.832145 -4.451272 -34.107746 15.804325 10.812409 1.534106 -2.429006 -5.469733 0.895225 25.696062 51.283875 -31.505562 3.331347 -11.921582 -13.610916 -1.260738 5.142560 -0.828563 6.926489 9.647155 -9.129222 
-8.117907 43.666069 -28.026686 0.000000 0.000000 -66.008514 -4.796081 -0.890616 1.946751 1.205308 6.858948 -0.237483 23.959272 -5.031330 14.120217 7.266821 3.129998 13.191062 1.878187 -17.981026 -0.919208 -43.093155 -1.495753 -8.378115 -21.290062 -24.923859 35.190292 1.185122 -3.445094 -6.482223 6.862022 23.215696 13.162928 35.842316 5.280308 49.855606 20.811752 -7.065783 -7.288280 2.832144 -4.451271 -34.107742 15.879617 11.096108 1.539910 -2.429006 -5.469733 0.895225 25.863945 51.224220 -31.837503 3.393203 -11.648442 -13.614089 -1.260738 5.142560 -0.828563 6.326310 9.650817 -9.321004 
-8.234854 43.626419 -28.185684 0.000000 0.000000 -66.008514 -4.794715 -0.886109 1.356658 1.210588 7.188995 -0.903135 23.654799 -5.034057 14.132720 6.993344 3.143728 13.209945 1.878187 -17.981026 -0.919208 -42.717213 -1.506995 -8.385244 -21.290060 -24.923859 35.190292 1.185122 -3.445094 -6.482223 6.682902 22.966280 13.238557 35.842316 5.280308 49.855606 20.811752 -7.065783 -7.288280 2.832145 -4.451272 -34.107742 15.955009 11.379803 1.546100 -2.429006 -5.469733 0.895225 26.031059 51.163948 -32.168736 3.454984 -11.375291 -13.616955 -1.260738 5.142560 -0.828563 5.726076 9.656459 -9.512755 
-8.351800 43.586773 -28.344681 0.000000 0.000000 -66.008514 -4.793393 -0.881589 0.766549 1.212003 7.519096 -1.569278 23.350264 -5.036717 14.145237 6.719824 3.157550 13.228761 1.878187 -17.981026 -0.919208 -42.341255 -1.518190 -8.392449 -21.290062 -24.923859 35.190292 1.185122 -3.445094 -6.482223 6.504468 22.716652 13.313206 35.842316 5.280308 49.855606 20.811752 -7.065783 -7.288280 2.832144 -4.451271 -34.107742 16.030510 11.663492 1.552677 -2.429006 -5.469733 0.895225 26.197386 51.103058 -32.499241 3.516693 -11.102136 -13.619519 -1.260738 5.142560 -0.828563 5.125834 9.664082 -9.704449 
-8.468746 43.547123 -28.503679 0.000000 0.000000 -66.008514 -4.792119 -0.877055 0.176457 1.209547 7.849176 -2.235904 23.045677 -5.039312 14.157772 6.446269 3.171464 13.247518 1.878187 -17.981026 -0.919208 -41.965302 -1.529338 -8.399727 -21.290060 -24.923859 35.190292 1.185122 -3.445094 -6.482223 6.326710 22.466810 13.386875 35.842316 5.280308 49.855606 20.811752 -7.065783 -7.288280 2.832145 -4.451272 -34.107742 16.106123 11.947170 1.559642 -2.429006 -5.469733 0.895225 26.362942 51.041592 -32.829037 3.578333 -10.828981 -13.621783 -1.260738 5.142560 -0.828563 4.525627 9.673685 -9.896049 
-8.585692 43.507473 -28.662678 0.000000 0.000000 -66.008514 -4.790891 -0.872509 -0.413587 1.203209 8.179164 -2.903000 22.741032 -5.041840 14.170317 6.172675 3.185468 13.266207 1.878187 -17.981026 -0.919208 -41.589355 -1.540437 -8.407078 -21.290064 -24.923861 35.190296 1.185122 -3.445094 -6.482223 6.149621 22.216764 13.459579 35.842316 5.280308 49.855606 20.811752 -7.065783 -7.288280 2.832144 -4.451271 -34.107742 16.181849 12.230834 1.566999 -2.429006 -5.469733 0.895225 26.527708 50.979519 -33.158108 3.639905 -10.555830 -13.623747 -1.260738 5.142560 -0.828563 3.925495 9.685262 -10.087523 
-8.702639 43.467827 -28.821676 0.000000 0.000000 -66.008514 -4.789712 -0.867951 -1.003553 1.192985 8.508985 -3.570556 22.436340 -5.044302 14.182880 5.899050 3.199564 13.284833 1.878187 -17.981026 -0.919208 -41.213425 -1.551486 -8.414498 -21.290062 -24.923859 35.190296 1.185122 -3.445094 -6.482223 5.973195 21.966524 13.531313 35.842316 5.280308 49.855606 20.811752 -7.065783 -7.288280 2.832145 -4.451272 -34.107742 16.257690 12.514479 1.574747 -2.429006 -5.469733 0.895225 26.691675 50.916843 -33.486435 3.701411 -10.282681 -13.625406 -1.260738 5.142560 -0.828563 3.325484 9.698815 -10.278840 
-8.819585 43.428177 -28.980675 0.000000 0.000000 -66.008514 -4.788578 -0.863382 -1.593407 1.178868 8.838573 -4.238562 22.131609 -5.046698 14.195458 5.625397 3.213749 13.303398 1.878187 -17.981026 -0.919208 -40.837521 -1.562487 -8.421995 -21.290064 -24.923861 35.190296 1.185122 -3.445094 -6.482223 5.797422 21.716093 13.602092 35.842316 5.280308 49.855606 20.811752 -7.065783 -7.288280 2.832145 -4.451272 -34.107746 16.333656 12.798100 1.582888 -2.429006 -5.469733 0.895225 26.854845 50.853584 -33.814022 3.762855 -10.009546 -13.626770 -1.260738 5.142560 -0.828563 2.725634 9.714336 -10.469966 
-8.936531 43.388527 -29.139671 0.000000 0.000000 -66.008514 -4.787493 -0.858802 -2.183121 1.160855 9.167851 -4.907006 21.826843 -5.049028 14.208053 5.351716 3.228024 13.321891 1.878187 -17.981026 -0.919208 -40.461655 -1.573437 -8.429562 -21.290062 -24.923859 35.190296 1.185122 -3.445094 -6.482223 5.622296 21.465469 13.671914 35.842316 5.280308 49.855606 20.811752 -7.065783 -7.288280 2.832145 -4.451272 -34.107742 16.409742 13.081694 1.591424 -2.429006 -5.469733 0.895225 27.017223 50.789745 -34.140877 3.824237 -9.736423 -13.627834 -1.260738 5.142560 -0.828563 2.125991 9.731827 -10.660871 
